<svg version="1.0" xmlns="http://www.w3.org/2000/svg"
 width="1124.000000pt" height="1095.000000pt" viewBox="0 0 1124.000000 1095.000000"
 preserveAspectRatio="xMidYMid meet">

<g transform="translate(0.000000,1095.000000) scale(0.100000,-0.100000)"
fill="#000000" stroke="none">
<path d="M6753 10750 c-148 -71 -445 -266 -559 -368 -88 -77 -167 -175 -273
-334 -48 -73 -94 -138 -102 -144 -8 -6 -41 -19 -74 -29 -126 -38 -156 -64
-261 -222 -41 -61 -88 -126 -105 -144 -17 -19 -47 -57 -65 -86 -19 -29 -40
-53 -48 -53 -13 0 -47 96 -101 288 -48 174 -113 315 -217 471 -130 195 -391
399 -721 562 l-117 58 -98 -29 c-468 -140 -924 -346 -1348 -611 -77 -48 -147
-96 -155 -106 -57 -65 -46 -428 20 -718 20 -87 71 -273 91 -330 11 -33 48
-154 81 -270 53 -183 246 -783 330 -1025 51 -144 317 -935 376 -1115 95 -293
255 -768 274 -818 11 -26 19 -51 19 -55 0 -10 -120 -179 -190 -267 -145 -185
-269 -463 -319 -712 -28 -142 -41 -263 -50 -478 -8 -185 -9 -192 -44 -280 -70
-178 -81 -346 -38 -550 42 -194 125 -341 335 -585 87 -102 86 -91 20 -211 -31
-57 -74 -130 -96 -161 -21 -31 -38 -59 -38 -62 0 -3 -30 -52 -67 -108 -118
-182 -202 -326 -256 -436 -115 -233 -137 -319 -137 -544 0 -246 35 -374 148
-544 65 -96 105 -127 267 -206 l150 -73 123 -1 123 -1 37 -44 c78 -92 82 -95
243 -147 234 -76 475 -135 518 -127 60 10 168 56 198 84 15 14 40 41 55 60
l26 35 119 -37 c246 -76 387 -97 657 -97 149 0 215 5 301 20 142 26 339 78
389 101 46 22 66 24 66 7 1 -23 66 -84 111 -105 68 -32 165 -59 261 -73 97
-15 135 -8 427 72 186 51 216 66 304 152 57 55 78 83 93 126 l19 55 152 -4
151 -4 84 41 c146 71 245 198 288 368 15 62 20 113 20 239 0 254 -37 420 -141
627 -46 92 -148 269 -188 327 -25 35 -351 525 -375 562 l-18 29 71 67 c183
168 306 355 341 516 11 50 29 126 41 167 16 53 22 104 22 175 1 111 -14 178
-69 307 l-33 77 6 153 c9 227 -20 477 -74 638 -35 105 -155 370 -190 422 -17
23 -55 79 -85 123 -30 44 -82 118 -116 164 -34 47 -62 90 -62 96 0 7 6 25 14
41 35 71 287 779 356 999 16 50 43 128 60 175 57 151 163 485 255 795 14 50
48 155 75 235 76 227 216 666 243 760 14 47 44 144 67 215 161 499 195 899
103 1230 -9 33 -24 66 -32 73 -78 62 -568 310 -793 401 -247 99 -698 241 -767
241 -14 0 -63 -18 -108 -40z m778 -274 c130 -40 301 -171 395 -302 62 -87 119
-215 139 -314 30 -147 10 -409 -49 -641 -43 -170 -94 -342 -141 -479 -25 -74
-59 -178 -76 -230 -17 -52 -160 -489 -319 -970 -159 -481 -303 -922 -321 -980
-17 -58 -60 -195 -96 -305 -35 -110 -68 -216 -73 -235 -5 -19 -14 -56 -21 -83
-6 -26 -16 -50 -21 -53 -5 -3 -23 6 -41 21 -70 57 -234 178 -274 201 -22 14
-44 32 -47 41 -17 44 -26 519 -22 1278 3 928 2 902 70 1167 48 183 77 269 130
375 24 48 51 106 62 128 28 62 109 179 145 209 65 55 108 70 194 71 113 0 174
-31 253 -132 48 -61 110 -191 129 -270 9 -37 18 -74 19 -81 3 -9 17 -12 41
-10 36 3 37 4 52 63 13 48 16 118 15 350 0 274 -1 293 -22 353 -46 130 -129
214 -229 234 -147 28 -366 -46 -502 -168 -114 -103 -254 -312 -328 -489 -86
-207 -136 -342 -148 -400 -24 -121 -54 -407 -75 -720 -6 -94 -20 -193 -36
-265 -37 -160 -42 -206 -54 -450 -5 -118 -14 -246 -20 -285 -5 -38 -14 -110
-19 -160 -6 -49 -17 -151 -25 -225 -9 -74 -16 -206 -16 -292 0 -179 2 -175
-83 -139 -24 10 -84 29 -133 41 -49 12 -94 27 -101 33 -7 8 -15 112 -23 309
-26 646 34 1737 119 2184 21 107 132 543 160 624 35 105 97 262 124 315 17 34
111 160 142 190 150 145 401 303 636 400 81 34 351 103 404 104 22 0 61 -6 86
-13z m-3878 -37 c181 -45 501 -188 640 -286 26 -18 50 -33 54 -33 9 0 119 -96
174 -153 74 -75 185 -250 235 -369 30 -71 96 -270 124 -372 10 -39 33 -120 50
-181 56 -202 83 -356 131 -740 4 -38 13 -106 19 -150 32 -233 31 -216 61
-1130 7 -209 13 -443 13 -520 l1 -139 -115 -18 c-63 -9 -135 -22 -159 -28 -24
-6 -47 -7 -51 -3 -5 4 -13 91 -19 193 -7 101 -23 270 -36 375 -25 199 -37 321
-55 570 -6 83 -15 182 -21 220 -12 80 -28 181 -35 210 -6 30 -51 463 -69 667
-8 98 -20 199 -25 225 -25 114 -78 251 -168 433 -177 359 -338 535 -564 618
-62 22 -89 26 -183 27 -98 0 -115 -3 -159 -25 -62 -32 -122 -101 -142 -165
-25 -83 -44 -279 -44 -460 0 -199 13 -304 37 -323 36 -26 47 -10 76 103 33
131 86 230 161 304 144 143 348 114 495 -70 37 -45 157 -249 212 -356 53 -107
78 -193 89 -307 6 -55 18 -175 27 -266 14 -140 17 -306 19 -1110 1 -520 -1
-965 -5 -990 -6 -45 -6 -45 -91 -88 -47 -24 -123 -66 -169 -93 -52 -31 -87
-47 -93 -41 -14 14 -83 213 -140 402 -75 249 -109 352 -204 625 -163 470 -265
770 -300 880 -42 133 -55 171 -104 300 -37 97 -71 188 -152 405 -76 202 -197
576 -217 670 -81 377 -91 450 -71 556 37 200 145 385 295 504 182 144 296 175
478 129z m2733 -3163 c8 -11 14 -32 14 -45 0 -23 -1 -24 -16 -10 -9 9 -16 38
-18 70 -2 30 -2 43 1 29 3 -13 11 -33 19 -44z m-1765 -25 c-6 -21 -13 -175
-16 -376 -3 -187 -8 -409 -11 -492 l-5 -153 -40 -11 c-53 -16 -67 -3 -48 42
10 26 13 110 12 389 -1 195 2 344 6 330 7 -24 7 -24 14 9 4 18 7 75 8 125 1
81 2 87 11 53 11 -41 32 -45 34 -6 3 54 37 172 42 145 2 -11 -1 -35 -7 -55z
m-54 -3 c-3 -7 -5 -2 -5 12 0 14 2 19 5 13 2 -7 2 -19 0 -25z m1843 -148 c0
-38 -5 -72 -10 -75 -6 -4 -10 -47 -9 -106 1 -55 -2 -103 -5 -106 -3 -4 -6 75
-6 174 0 99 3 183 6 186 16 16 24 -9 24 -73z m-610 -1194 c212 -35 438 -103
575 -174 72 -36 250 -150 295 -188 307 -260 439 -414 560 -654 88 -175 120
-314 140 -610 6 -91 15 -181 20 -200 5 -19 14 -62 19 -95 6 -33 18 -94 27
-135 45 -214 47 -231 34 -315 -30 -196 -125 -343 -310 -482 -151 -113 -314
-175 -629 -238 -106 -22 -229 -25 -240 -6 -7 10 -32 13 -97 12 -120 -2 -255
13 -334 38 -83 27 -185 103 -236 177 l-39 56 3 167 c2 113 7 169 15 177 7 6
33 19 59 28 105 38 166 109 188 218 13 65 9 78 -23 78 -13 0 -41 9 -62 21 -97
51 -163 69 -250 69 -46 0 -108 -5 -137 -11 -60 -13 -181 -66 -217 -96 l-25
-20 36 -74 c19 -41 47 -89 62 -107 37 -43 105 -82 169 -96 l52 -11 3 -173 c3
-189 0 -202 -61 -269 -41 -45 -191 -118 -292 -143 -158 -38 -641 -52 -795 -22
-159 30 -316 87 -452 164 -39 22 -172 125 -194 149 -84 97 -161 272 -175 399
-9 93 -5 127 30 267 11 43 22 101 26 128 3 28 17 156 30 285 44 403 75 536
177 740 70 139 124 227 186 300 239 281 503 467 792 558 247 78 289 88 435
102 125 12 532 3 635 -14z m-85 -3421 c39 -8 113 -27 165 -41 52 -14 122 -32
155 -41 82 -21 419 -29 572 -14 134 14 201 25 326 53 100 23 101 23 153 -55
25 -38 162 -202 222 -267 12 -14 39 -54 59 -90 20 -36 75 -123 123 -195 167
-250 203 -338 219 -530 5 -55 7 -151 6 -214 -3 -133 4 -125 -121 -136 -62 -5
-84 -4 -90 6 -4 7 -6 63 -5 124 4 204 -37 312 -187 487 -109 126 -220 223
-289 252 -39 16 -70 19 -168 18 -229 -2 -296 -46 -339 -223 -11 -45 -14 -86
-9 -132 5 -57 4 -67 -10 -67 -19 0 -47 -84 -47 -143 0 -47 -33 -182 -62 -256
-22 -55 -96 -163 -132 -192 -56 -46 -255 -126 -386 -157 -263 -62 -537 -66
-770 -12 -25 6 -61 15 -80 19 -83 19 -199 72 -265 121 -188 139 -254 343 -265
813 0 4 -8 7 -18 7 -13 0 -23 16 -37 56 -24 72 -57 103 -147 138 -58 23 -87
29 -143 28 -74 -1 -100 -11 -255 -102 -124 -73 -255 -237 -307 -385 -26 -75
-28 -90 -27 -241 l0 -162 -80 -11 c-94 -13 -166 -14 -183 -3 -45 29 -66 387
-29 507 39 131 60 167 362 625 34 52 71 105 82 116 11 12 59 77 105 145 l85
124 47 -3 c26 -1 70 -8 99 -16 49 -14 105 -22 301 -46 50 -6 182 -10 295 -10
202 1 207 2 365 40 237 57 305 72 360 81 71 11 267 2 350 -16z m-1585 -800 c0
-3 -7 -22 -15 -42 -39 -92 -57 -198 -62 -354 -4 -138 -3 -163 17 -230 28 -98
59 -178 82 -211 10 -14 18 -32 18 -40 0 -8 34 -55 75 -105 l74 -91 -44 -11
c-96 -24 -127 -11 -205 88 -70 88 -106 163 -140 294 -19 72 -7 319 20 422 27
105 75 198 125 246 37 36 55 47 55 34z m2898 -154 c76 -148 102 -248 102 -387
0 -134 -29 -243 -104 -389 -28 -56 -46 -77 -87 -103 -28 -19 -65 -38 -82 -43
-43 -12 -114 -11 -122 2 -4 5 4 27 17 47 45 69 118 232 146 327 51 172 64 317
48 545 l-8 125 25 -24 c15 -13 44 -58 65 -100z"/>
<path d="M4562 6905 c0 -16 2 -22 5 -12 2 9 2 23 0 30 -3 6 -5 -1 -5 -18z"/>
<path d="M4599 4762 c-1 -4 -1 -34 0 -67 1 -81 -21 -126 -73 -143 -49 -16 -90
-4 -146 43 -44 37 -70 37 -95 2 -11 -16 -15 -52 -15 -140 0 -112 2 -123 30
-182 36 -76 99 -139 159 -160 56 -19 171 -19 215 -1 91 38 157 225 126 358
-16 72 -80 179 -146 244 -30 29 -55 50 -55 46z"/>
<path d="M6365 4745 c-62 -31 -134 -132 -150 -210 -3 -16 -11 -52 -16 -80 -13
-61 -6 -132 20 -204 45 -121 92 -154 219 -155 88 -1 128 12 190 62 85 68 112
139 112 294 0 102 -14 167 -39 183 -6 3 -29 -14 -52 -37 -59 -61 -88 -78 -136
-78 -57 0 -69 6 -95 48 -16 26 -24 58 -28 112 -5 72 -6 75 -25 65z"/>
<path d="M6438 2893 c7 -3 16 -2 19 1 4 3 -2 6 -13 5 -11 0 -14 -3 -6 -6z"/>
</g>
</svg>